HIERARCHY
ROOT Hips
{
	OFFSET 0.000000 0.000000 0.000000
	CHANNELS 6 Xposition Yposition Zposition Xrotation Yrotation Zrotation
	JOINT LeftUpLeg_virtual
	{
		OFFSET 0.000000 0.000000 0.000000
		CHANNELS 3 Xrotation Yrotation Zrotation
		JOINT LeftUpLeg
		{
			OFFSET 15.427100 -6.655098 0.678600
			CHANNELS 3 Xrotation Yrotation Zrotation
			JOINT LeftLeg
			{
				OFFSET 4.081073 -39.591068 13.024000
				CHANNELS 3 Xrotation Yrotation Zrotation
				JOINT LeftFoot
				{
					OFFSET -4.081074 -37.707932 -15.979700
					CHANNELS 3 Xrotation Yrotation Zrotation
					JOINT LeftToeBase
					{
						OFFSET 5.346399 -15.068900 20.645000
						CHANNELS 3 Xrotation Yrotation Zrotation
						JOINT LeftToe_End
						{
							OFFSET 2.754700 0.931300 11.300900
							CHANNELS 3 Xrotation Yrotation Zrotation
							End Site
							{
								OFFSET 0 0 0
							}
						}
					}
				}
			}
		}
	}
	JOINT RightUpLeg_virtual
	{
		OFFSET 0.000000 0.000000 0.000000
		CHANNELS 3 Xrotation Yrotation Zrotation
		JOINT RightUpLeg
		{
			OFFSET -15.569500 -6.655098 0.678600
			CHANNELS 3 Xrotation Yrotation Zrotation
			JOINT RightLeg
			{
				OFFSET -4.081825 -39.591045 13.023800
				CHANNELS 3 Xrotation Yrotation Zrotation
				JOINT RightFoot
				{
					OFFSET 4.081824 -37.707954 -15.979600
					CHANNELS 3 Xrotation Yrotation Zrotation
					JOINT RightToeBase
					{
						OFFSET -5.346400 -15.068900 20.645000
						CHANNELS 3 Xrotation Yrotation Zrotation
						JOINT RightToe_End
						{
							OFFSET -2.754700 0.931300 11.300900
							CHANNELS 3 Xrotation Yrotation Zrotation
							End Site
							{
								OFFSET 0 0 0
							}
						}
					}
				}
			}
		}
	}
	JOINT Spine_virtual
	{
		OFFSET 0.000000 0.000000 0.000000
		CHANNELS 3 Xrotation Yrotation Zrotation
		JOINT Spine
		{
			OFFSET -0.279200 12.230698 -2.892100
			CHANNELS 3 Xrotation Yrotation Zrotation
			JOINT Spine1
			{
				OFFSET -0.232667 10.192268 -1.242267
				CHANNELS 3 Xrotation Yrotation Zrotation
				JOINT Spine1_split
				{
					OFFSET -0.232667 10.192268 -1.242267
					CHANNELS 3 Xrotation Yrotation Zrotation
					JOINT Spine2
					{
						OFFSET -0.232667 10.192268 -1.242267
						CHANNELS 3 Xrotation Yrotation Zrotation
						JOINT Neck_virtual
						{
							OFFSET 0.000000 0.000000 0.000000
							CHANNELS 3 Xrotation Yrotation Zrotation
							JOINT Neck
							{
								OFFSET -0.418800 17.814194 8.416900
								CHANNELS 3 Xrotation Yrotation Zrotation
								JOINT Head
								{
									OFFSET 0.000000 7.031097 3.806800
									CHANNELS 3 Xrotation Yrotation Zrotation
									JOINT HeadTop_End
									{
										OFFSET 0.000000 24.646606 12.978600
										CHANNELS 3 Xrotation Yrotation Zrotation
										End Site
										{
											OFFSET 0 0 0
										}
									}
								}
							}
						}
						JOINT LeftShoulder_virtual
						{
							OFFSET 0.000000 0.000000 0.000000
							CHANNELS 3 Xrotation Yrotation Zrotation
							JOINT LeftShoulder
							{
								OFFSET 8.476499 7.247704 -3.868750
								CHANNELS 3 Xrotation Yrotation Zrotation
								JOINT LeftShoulder_split
								{
									OFFSET 8.476499 7.247704 -3.868750
									CHANNELS 3 Xrotation Yrotation Zrotation
									JOINT LeftArm
									{
										OFFSET 9.308998 -2.777710 0.208600
										CHANNELS 3 Xrotation Yrotation Zrotation
										JOINT LeftForeArm
										{
											OFFSET 29.972298 0.000000 0.000000
											CHANNELS 3 Xrotation Yrotation Zrotation
											JOINT LeftHand
											{
												OFFSET 26.026505 0.000000 0.000000
												CHANNELS 3 Xrotation Yrotation Zrotation
												End Site
												{
													OFFSET 0 0 0
												}
											}
										}
									}
								}
							}
						}
						JOINT RightShoulder_virtual
						{
							OFFSET 0.000000 0.000000 0.000000
							CHANNELS 3 Xrotation Yrotation Zrotation
							JOINT RightShoulder
							{
								OFFSET -7.570500 7.247704 -3.868750
								CHANNELS 3 Xrotation Yrotation Zrotation
								JOINT RightShoulder_split
								{
									OFFSET -7.570500 7.247704 -3.868750
									CHANNELS 3 Xrotation Yrotation Zrotation
									JOINT RightArm
									{
										OFFSET -9.308998 -2.777710 0.208500
										CHANNELS 3 Xrotation Yrotation Zrotation
										JOINT RightForeArm
										{
											OFFSET -29.972300 0.000000 0.000000
											CHANNELS 3 Xrotation Yrotation Zrotation
											JOINT RightHand
											{
												OFFSET -26.026505 0.000000 0.000000
												CHANNELS 3 Xrotation Yrotation Zrotation
												End Site
												{
													OFFSET 0 0 0
												}
											}
										}
									}
								}
							}
						}
					}
				}
			}
		}
	}
}
MOTION
Frames: 9
Frame Time: 0.03333333
-0.157393 84.178696 44.711910 0.000000 0.000000 0.000000 9.739939 -5.404173 0.134572 -31.357361 4.196767 19.078837 41.000994 6.011635 -0.755042 -17.249774 -1.252314 -16.356309 -0.109848 0.000001 0.000001 0.000000 0.000000 0.000000 9.739939 -5.404173 0.134572 -37.378395 -1.868935 -6.975935 42.162577 2.040442 -4.034858 -13.065589 -12.253274 10.200966 1.051150 -0.000001 0.000001 0.000000 0.000000 0.000000 9.739939 -5.404173 0.134572 5.627604 0.087105 -1.353077 2.821245 -0.553560 -0.076054 0.000000 0.000000 0.000000 0.000000 0.000000 0.000000 1.233430 -0.970668 0.984312 12.744445 -0.360747 2.014637 -31.319727 0.726275 -5.428399 0.000000 0.000000 0.000000 1.233430 -0.970668 0.984312 5.913650 -7.807889 19.928508 0.000000 0.000000 0.000000 -34.306196 -17.647674 -14.146171 179.999991 -55.705670 -180.000005 0.000000 0.000000 0.000000 1.233430 -0.970668 0.984312 -1.553033 -8.369797 -14.911053 0.000000 0.000000 0.000000 -30.430009 36.040251 26.479117 -179.999991 58.847469 179.999991 0.000000 0.000000 0.000000 
-0.307301 86.793808 45.524113 0.000000 0.000000 0.000000 10.279839 -5.137782 0.214303 -28.710260 5.330112 18.268996 35.282005 6.301434 -0.617087 -15.005318 -1.633964 -15.886690 -0.109854 0.000003 0.000002 0.000000 0.000000 0.000000 10.279839 -5.137782 0.214303 -34.320212 -2.274278 -6.767270 36.798129 1.664491 -4.039737 -11.298631 -12.094758 10.227866 1.031096 -0.000003 0.000002 0.000000 0.000000 0.000000 10.279839 -5.137782 0.214303 5.320127 0.077004 -1.351975 2.188031 -0.566219 -0.158979 0.000000 0.000000 0.000000 0.000000 0.000000 0.000000 0.272734 -0.972615 0.898067 12.585925 -0.308784 2.188553 -30.323021 0.842205 -5.312840 0.000000 0.000000 0.000000 0.272734 -0.972615 0.898067 5.876925 -7.979693 20.002223 0.000000 0.000000 0.000000 -34.254676 -16.965572 -14.997627 180.000005 -55.552456 -180.000005 0.000000 0.000000 0.000000 0.272734 -0.972615 0.898067 -1.569642 -8.377660 -14.965267 0.000000 0.000000 0.000000 -29.516123 36.059929 26.253335 -179.999991 58.643670 179.999991 0.000000 0.000000 0.000000 
-0.464826 89.192932 46.223179 0.000000 0.000000 0.000000 10.794902 -4.771463 0.239799 -26.235011 6.310629 17.538669 29.665485 6.531466 -0.513934 -12.650350 -2.106462 -15.430844 -0.109851 0.000005 -0.000003 0.000000 0.000000 0.000000 10.794902 -4.771463 0.239799 -31.411531 -2.620269 -6.542385 31.538928 1.179979 -4.034286 -9.442098 -11.938900 10.272137 1.011049 -0.000002 0.000001 0.000000 0.000000 0.000000 10.794902 -4.771463 0.239799 5.077902 0.069519 -1.337136 1.666086 -0.571975 -0.208915 0.000000 0.000000 0.000000 0.000000 0.000000 0.000000 -0.559323 -0.968292 0.843850 12.301275 -0.295254 2.357713 -29.149557 0.800226 -5.276033 0.000000 0.000000 0.000000 -0.559323 -0.968292 0.843850 5.878852 -8.060532 20.101156 0.000000 0.000000 0.000000 -33.982220 -16.856629 -15.686663 180.000005 -55.612397 -179.999991 0.000000 0.000000 0.000000 -0.559323 -0.968292 0.843850 -1.587335 -8.450121 -14.986755 0.000000 0.000000 0.000000 -28.633703 36.187732 26.024552 -179.999991 58.852817 179.999991 0.000000 0.000000 0.000000 
-0.611822 91.139595 46.740356 0.000000 0.000000 0.000000 11.064859 -4.404232 0.272954 -23.967516 7.131252 16.901189 24.749973 6.683519 -0.457955 -10.494232 -2.571109 -15.027243 -0.109848 0.000005 0.000005 0.000000 0.000000 0.000000 11.064859 -4.404232 0.272954 -28.829935 -2.911982 -6.388081 27.026346 0.748065 -4.022569 -7.769209 -11.791107 10.276061 0.991008 0.000004 0.000001 0.000000 0.000000 0.000000 11.064859 -4.404232 0.272954 4.914704 0.059754 -1.320239 1.280397 -0.581399 -0.243914 0.000000 0.000000 0.000000 0.000000 0.000000 0.000000 -1.235870 -0.968076 0.803034 12.017599 -0.320258 2.501738 -27.789528 0.599162 -5.297344 0.000000 0.000000 0.000000 -1.235870 -0.968076 0.803034 5.878256 -7.672477 20.103035 0.000000 0.000000 0.000000 -33.468747 -17.978113 -16.110610 180.000005 -55.968138 -180.000005 0.000000 0.000000 0.000000 -1.235870 -0.968076 0.803034 -1.619841 -8.648572 -15.036402 0.000000 0.000000 0.000000 -28.202449 36.406869 26.123054 -179.999991 59.564536 179.999991 0.000000 0.000000 0.000000 
-0.728986 92.553711 47.040657 0.000000 0.000000 0.000000 11.039210 -4.108299 0.307936 -22.034294 7.772421 16.407930 20.930577 6.763369 -0.452375 -8.745147 -2.963338 -14.691681 -0.109846 -0.000004 0.000001 0.000000 0.000000 0.000000 11.039210 -4.108299 0.307936 -26.715737 -3.153357 -6.299554 23.593524 0.443996 -4.005791 -6.428731 -11.664816 10.239376 0.970966 0.000012 -0.000002 0.000000 0.000000 0.000000 11.039210 -4.108299 0.307936 4.835960 0.051108 -1.289656 1.041129 -0.598517 -0.274371 0.000000 0.000000 0.000000 0.000000 0.000000 0.000000 -1.744800 -0.975782 0.764702 11.863109 -0.362431 2.602119 -26.302200 0.317049 -5.304089 0.000000 0.000000 0.000000 -1.744800 -0.975782 0.764702 5.849450 -6.585282 19.920834 0.000000 0.000000 0.000000 -32.533540 -20.318828 -16.382499 180.000005 -56.159608 -179.999991 0.000000 0.000000 0.000000 -1.744800 -0.975782 0.764702 -1.670309 -8.903712 -15.179141 0.000000 0.000000 0.000000 -28.256411 36.425146 26.965474 179.999978 60.098739 -179.999978 0.000000 0.000000 0.000000 
-0.814215 93.475288 47.110134 0.000000 0.000000 0.000000 10.866154 -3.896582 0.323956 -20.656642 8.205316 16.095517 18.321974 6.803051 -0.483124 -7.450525 -3.270038 -14.429497 -0.109846 -0.000002 0.000001 0.000000 0.000000 0.000000 10.866154 -3.896582 0.323956 -25.228659 -3.322101 -6.239536 21.270065 0.240576 -3.982188 -5.429488 -11.567950 10.183581 0.950924 -0.000009 0.000002 0.000000 0.000000 0.000000 10.866154 -3.896582 0.323956 4.828795 0.044935 -1.239480 0.927518 -0.624166 -0.296081 0.000000 0.000000 0.000000 0.000000 0.000000 0.000000 -2.104702 -0.992649 0.733137 11.862736 -0.399618 2.654986 -24.817670 0.051178 -5.258240 0.000000 0.000000 0.000000 -2.104702 -0.992649 0.733137 5.806724 -4.919176 19.528564 0.000000 0.000000 0.000000 -30.961883 -23.198196 -16.689335 180.000005 -55.554641 -179.999991 0.000000 0.000000 0.000000 -2.104702 -0.992649 0.733137 -1.715438 -9.041385 -15.338108 0.000000 0.000000 0.000000 -28.143755 35.816399 28.399040 -179.999991 59.530740 179.999991 0.000000 0.000000 0.000000 
-0.880233 93.931313 46.929535 0.000000 0.000000 0.000000 10.711979 -3.730809 0.331681 -20.074131 8.395628 15.955909 16.991747 6.822728 -0.515963 -6.614350 -3.506939 -14.259972 -0.109846 0.000000 -0.000004 0.000000 0.000000 0.000000 10.711979 -3.730809 0.331681 -24.555978 -3.376496 -6.216708 20.102845 0.068296 -3.948277 -4.785636 -11.509607 10.128535 0.930876 -0.000000 0.000003 0.000000 0.000000 0.000000 10.711979 -3.730809 0.331681 4.864474 0.038164 -1.183397 0.890604 -0.654734 -0.297253 0.000000 0.000000 0.000000 0.000000 0.000000 0.000000 -2.362434 -1.015908 0.720725 11.958709 -0.426060 2.673404 -23.458245 -0.146793 -5.201978 0.000000 0.000000 0.000000 -2.362434 -1.015908 0.720725 5.797807 -3.187908 18.901184 0.000000 0.000000 0.000000 -28.656445 -25.897880 -17.247375 -180.000005 -54.262240 -180.000005 0.000000 0.000000 0.000000 -2.362434 -1.015908 0.720725 -1.711356 -8.942825 -15.274880 0.000000 0.000000 0.000000 -26.810229 34.558408 29.485554 -179.999978 57.763743 179.999978 0.000000 0.000000 0.000000 
-0.928178 93.953156 46.494175 0.000000 0.000000 0.000000 10.623149 -3.571058 0.329772 -20.353928 8.338804 15.971248 16.923629 6.818563 -0.526201 -6.214678 -3.697200 -14.186908 -0.109848 0.000002 0.000000 0.000000 0.000000 0.000000 10.623149 -3.571058 0.329772 -24.720015 -3.309233 -6.242643 20.065038 -0.114995 -3.902134 -4.486832 -11.494580 10.089293 0.910833 0.000012 0.000002 0.000000 0.000000 0.000000 10.623149 -3.571058 0.329772 4.909974 0.036460 -1.117748 0.872283 -0.676994 -0.273521 0.000000 0.000000 0.000000 0.000000 0.000000 0.000000 -2.574135 -1.032788 0.732785 12.099211 -0.447354 2.691807 -22.231989 -0.277936 -5.198978 0.000000 0.000000 0.000000 -2.574135 -1.032788 0.732785 5.888549 -2.128577 17.942731 0.000000 0.000000 0.000000 -25.750814 -27.962666 -18.310945 180.000005 -53.431682 -180.000005 0.000000 0.000000 0.000000 -2.574135 -1.032788 0.732785 -1.637700 -8.625352 -14.895697 0.000000 0.000000 0.000000 -23.651369 33.215907 29.446943 179.999991 55.814322 -180.000005 0.000000 0.000000 0.000000 
-0.961849 93.721573 45.875546 0.000000 0.000000 0.000000 10.564201 -3.399742 0.325318 -21.161140 8.133915 16.063285 17.586381 6.797902 -0.520919 -6.035644 -3.874626 -14.156896 -0.109844 0.000004 -0.000004 0.000000 0.000000 0.000000 10.564201 -3.399742 0.325318 -25.388139 -3.171649 -6.308843 20.682832 -0.311134 -3.847786 -4.360090 -11.503479 10.065243 0.890786 0.000002 -0.000002 0.000000 0.000000 0.000000 10.564201 -3.399742 0.325318 4.938827 0.043857 -1.048959 0.824898 -0.677174 -0.232953 0.000000 0.000000 0.000000 0.000000 0.000000 0.000000 -2.785649 -1.029102 0.762128 12.273329 -0.466005 2.768131 -21.011848 -0.357030 -5.261448 0.000000 0.000000 0.000000 -2.785649 -1.029102 0.762128 6.106435 -2.283357 16.536153 0.000000 0.000000 0.000000 -22.541275 -29.114853 -20.064101 179.999991 -54.277253 -179.999991 0.000000 0.000000 0.000000 -2.785649 -1.029102 0.762128 -1.530303 -8.131120 -14.606155 0.000000 0.000000 0.000000 -18.999498 32.312324 28.715881 180.000005 54.871137 179.999991 0.000000 0.000000 0.000000 
